<svg xmlns="http://www.w3.org/2000/svg" id="dark" viewBox="0 0 698.37 158.91"><defs><style>.cls-1{fill:#fff;}.cls-2{fill:#00b8d4;}.cls-3{fill:#2962ff;}.cls-4{fill:#0091ea;}</style></defs><path class="cls-1" d="M282.5,450.67q0-5.69,5.68-5.69h14q5.69,0,5.69,5.69V593.24q0,5.68-5.69,5.68h-14q-5.69,0-5.68-5.68V585q-12.33,15.87-34.34,15.87-22.74,0-37.54-16t-14.8-40.38q0-24.63,14.8-40.38t37.54-15.75q22.25,0,34.34,15.87ZM229.21,567.78q8.52,9.12,22.5,9.12t22.38-9.12q8.4-9.12,8.41-23.33t-8.41-23.21q-8.41-9-22.38-9t-22.5,9q-8.52,9-8.53,23.21T229.21,567.78Z" transform="translate(-195.82 -443.09)"></path><path class="cls-1" d="M381.25,488.09q23.69,0,38,15.86t14.33,40.5v1.42q0,5.68-5.69,5.69H351.65q1.89,12.78,10.3,20.24a29.72,29.72,0,0,0,20.48,7.46q15.63,0,24.87-9.23,4-3.79,8.05-.71l8.29,6.16q4.74,3.54,1.19,7.81-15.4,17.76-42.4,17.76-24.63,0-40-16T327,544.45q0-24.63,14.92-40.5T381.25,488.09Zm0,20.13q-11.85,0-19.54,7.22t-9.83,19.77h58q-2.13-12.08-9.6-19.53T381.25,508.22Z" transform="translate(-195.82 -443.09)"></path><path class="cls-1" d="M486.17,598.92c-3,0-5.14-1.5-6.4-4.5l-38.6-97.81q-1.19-2.83.12-4.73c.86-1.27,2.33-1.9,4.38-1.9h14.45a6.29,6.29,0,0,1,6.39,4.5l27.24,69.86,27.7-69.86q1.9-4.5,6.4-4.5h14.68q3.08,0,4.38,1.9t.12,4.73L508,594.42q-1.9,4.5-6.4,4.5Z" transform="translate(-195.82 -443.09)"></path><path class="cls-1" d="M657.38,467.48a14.41,14.41,0,0,1-10.06,4,14,14,0,0,1-10-4,13.67,13.67,0,0,1-4.26-10.42,13,13,0,0,1,4.26-10.18,14.49,14.49,0,0,1,10-3.79,14.91,14.91,0,0,1,10.06,3.79,12.78,12.78,0,0,1,4.38,10.18A13.49,13.49,0,0,1,657.38,467.48Zm2.73,125.76q0,5.68-5.69,5.68H640.21q-5.69,0-5.68-5.68V495.66c0-3.78,1.89-5.68,5.68-5.68h14.45c3.79,0,5.68,1.9,5.68,5.68Z" transform="translate(-195.82 -443.09)"></path><path class="cls-1" d="M683.31,580.92q-2.61-4.26,2.13-7.58l8.53-5.68q4.26-2.61,7.82,1.66A36.1,36.1,0,0,0,713.51,578a35.16,35.16,0,0,0,15.75,3.67q18.94,0,18.94-13a9.19,9.19,0,0,0-1.54-5.33,13.36,13.36,0,0,0-4.85-4,46,46,0,0,0-5.57-2.6q-2.25-.82-7.1-2.25t-5.8-1.66l-4-1.18q-4-1.18-5.68-1.78t-6-2.37A36.34,36.34,0,0,1,701,544.1c-1.51-1-3.4-2.41-5.69-4.15a19.68,19.68,0,0,1-5.09-5.33,38.15,38.15,0,0,1-3.08-6.51,22.65,22.65,0,0,1-1.42-8.05q0-15.87,12.08-24.16t30.79-8.29q14.44,0,25.1,5t16.1,12.78q3.32,4.74-1.89,7.82l-7.58,4.74q-3.79,2.61-7.81-1.19-10-9.47-24.87-9.47-8.29,0-12.79,3.2a9.85,9.85,0,0,0-4.5,8.4,9.33,9.33,0,0,0,1.42,5.1,11.44,11.44,0,0,0,4.74,3.9c2.21,1.11,4,2,5.45,2.61a53.57,53.57,0,0,0,6.86,2.25c3.16.87,5.05,1.38,5.69,1.54.15,0,1.22.32,3.19.94s3.44,1.11,4.39,1.43,2.52.87,4.73,1.65a36,36,0,0,1,5.21,2.25q1.89,1.07,5.09,2.73a25.9,25.9,0,0,1,5.1,3.31q1.89,1.67,4.14,4a22,22,0,0,1,3.55,4.85,31.53,31.53,0,0,1,2.25,5.69,22.84,22.84,0,0,1,1,6.51q0,16.58-11.6,25.46T729,602q-16.34,0-28.18-5.92T683.31,580.92Z" transform="translate(-195.82 -443.09)"></path><path class="cls-1" d="M841.84,488.09q23.68,0,38,15.86t14.32,40.5v1.42q0,5.68-5.68,5.69H812.24q1.89,12.78,10.3,20.24A29.77,29.77,0,0,0,843,579.26q15.63,0,24.87-9.23,4-3.79,8.05-.71l8.29,6.16q4.72,3.54,1.18,7.81Q870,601.05,843,601.05q-24.63,0-40-16t-15.39-40.62q0-24.63,14.92-40.5T841.84,488.09Zm0,20.13q-11.83,0-19.53,7.22t-9.83,19.77h58q-2.13-12.08-9.59-19.53T841.84,508.22Z" transform="translate(-195.82 -443.09)"></path><path class="cls-2" d="M618.08,491.88a5,5,0,0,0-4.39-1.9H599q-4.5,0-6.39,4.5L564.9,564.35l7.6,20.08,1.28,3.22a8.73,8.73,0,0,0,1.22,2.11,6.18,6.18,0,0,0,5,2.39l2.6-6.49,35.57-89Q619.38,493.78,618.08,491.88Z" transform="translate(-195.82 -443.09)"></path><path class="cls-3" d="M554.43,589.76a9.43,9.43,0,0,0,1.22-2.11l1.28-3.22h0l8-20.08L559.08,549a6.28,6.28,0,0,0-6.39-4.5H538.24a4.94,4.94,0,0,0-4.38,1.9q-1.3,1.89-.12,4.73l16.28,41A6.1,6.1,0,0,0,554.43,589.76Z" transform="translate(-195.82 -443.09)"></path><path class="cls-4" d="M575,589.76a8.73,8.73,0,0,1-1.22-2.11l-1.28-3.22-7.6-20.08-8,20.08h0l-1.28,3.22a9.43,9.43,0,0,1-1.22,2.11,6.1,6.1,0,0,1-4.41,2.35l.92,2.31a9,9,0,0,0,1.21,2.12,6.29,6.29,0,0,0,5.18,2.38h15.39q4.5,0,6.39-4.5l.91-2.27A6.18,6.18,0,0,1,575,589.76Z" transform="translate(-195.82 -443.09)"></path></svg>